# xmcd
#
# Track frame offsets:
#	150
#	14195
#	27565
#	40935
#	54174
#	66362
#	77841
#	91578
#	103473
#	117468
#	130685
#	142525
#
# Disc length: 2090 seconds
#
# Revision: 1
# Processed by: cddbd v1.5.2PL0 Copyright (c) Steve Scherf et al.
# Submitted via: audiograbber 1.83.01
#
DISCID=a008280c
DTITLE=JAVIER SOLIS - EXITOS
DYEAR=1900
DGENRE=KARAOKE
TTITLE0=LAS REJAS NO MATAN
TTITLE1=ESCLAVO Y AMO
TTITLE2=RENUNCIACION
TTITLE3=EL LOCO
TTITLE4=CON MIS PROPIAS MANOS
TTITLE5=ENTREGA TOTAL
TTITLE6=LLORARAS.LLORARAS
TTITLE7=JULIA
TTITLE8=DESPRECIADO ME VOY
TTITLE9=EN MI VIEJO SAN JUAN
TTITLE10=ESTA TRISTEZA MIA
TTITLE11=LAGRIMAS DE AMOR
EXTD=
EXTT0=
EXTT1=
EXTT2=
EXTT3=
EXTT4=
EXTT5=
EXTT6=
EXTT7=
EXTT8=
EXTT9=
EXTT10=
EXTT11=
PLAYORDER=
